<?xml version="1.0" encoding="UTF-8" ?>
<!DOCTYPE svg PUBLIC "-//W3C//DTD SVG 1.1//EN" "http://www.w3.org/Graphics/SVG/1.1/DTD/svg11.dtd">
<svg width="1051pt" height="1051pt" viewBox="0 0 1051 1051" version="1.1" xmlns="http://www.w3.org/2000/svg">
<g id="#ffffffff">
<path fill="#ffffff" opacity="1.00" d=" M 485.38 0.00 L 564.57 0.00 C 587.14 57.78 610.20 115.38 632.91 173.12 C 637.19 184.45 642.21 195.52 646.09 206.99 C 640.73 209.41 634.69 208.36 629.01 208.98 C 605.36 210.12 581.66 209.34 557.99 210.01 C 506.61 209.89 455.20 210.21 403.82 209.85 C 405.29 202.31 408.51 195.29 411.17 188.13 C 426.91 147.34 443.11 106.73 459.04 66.02 C 467.84 44.02 476.06 21.79 485.38 0.00 Z" />
<path fill="#ffffff" opacity="1.00" d=" M 176.99 234.30 C 207.30 232.88 237.67 234.30 267.99 233.34 C 276.33 233.33 284.67 233.45 293.00 233.01 C 351.00 232.98 409.00 233.02 467.00 232.99 C 489.31 233.74 511.64 233.08 533.96 233.40 C 551.65 234.16 569.35 233.90 587.05 234.10 C 595.04 234.98 603.10 234.25 611.07 235.21 C 611.47 237.29 609.86 239.19 609.11 241.06 C 602.22 253.02 594.73 264.62 587.21 276.21 C 570.79 301.76 554.28 327.26 537.89 352.84 C 537.33 353.70 536.68 354.48 535.93 355.17 C 517.63 355.58 499.30 355.06 480.99 355.66 C 462.34 356.39 443.66 355.58 425.01 356.34 C 407.29 356.28 389.57 356.28 371.87 356.84 C 374.37 362.20 377.96 366.94 380.93 372.04 C 387.08 381.59 392.64 391.57 399.14 400.87 C 428.08 401.59 457.06 401.22 486.03 401.39 C 503.66 402.03 521.32 401.43 538.96 401.74 C 546.98 402.26 555.01 401.81 563.03 402.09 C 578.95 403.00 594.91 402.42 610.83 403.53 C 611.03 405.80 609.80 407.81 608.70 409.69 C 589.04 442.22 568.13 473.98 548.38 506.43 C 522.88 507.33 497.29 507.08 471.77 507.88 C 472.00 510.87 473.67 513.43 475.08 515.99 C 484.41 533.31 495.25 549.76 505.37 566.62 C 528.77 604.89 552.20 643.14 575.61 681.40 C 580.86 689.84 585.78 698.49 590.86 707.05 C 593.95 712.60 597.81 717.87 599.68 724.01 C 579.78 760.71 558.14 796.51 535.83 831.81 C 533.16 835.57 531.24 839.89 528.06 843.26 C 520.28 831.84 513.18 819.94 505.67 808.33 C 400.33 642.35 295.01 476.36 189.67 310.37 C 174.98 287.02 159.84 263.95 145.79 240.20 C 144.90 238.64 144.28 236.93 143.94 235.17 C 154.92 234.04 165.97 234.42 176.99 234.30 Z" />
<path fill="#ffffff" opacity="1.00" d=" M 643.48 233.49 C 688.64 233.12 733.83 233.44 779.00 233.33 C 813.67 233.48 848.35 232.99 883.00 233.68 C 896.92 233.60 910.84 233.65 924.74 234.25 C 931.09 235.00 937.65 234.06 943.81 236.14 C 942.32 239.96 939.84 243.27 937.73 246.75 C 918.46 277.95 898.17 308.49 878.45 339.40 C 875.42 343.72 873.08 348.55 869.63 352.56 C 855.82 353.00 841.95 352.19 828.15 353.10 C 827.25 353.92 826.63 354.98 826.01 356.01 C 807.77 388.10 787.86 419.20 768.77 450.78 C 756.46 470.83 744.21 490.91 731.90 510.95 C 710.20 545.35 688.69 579.85 667.46 614.54 C 651.69 640.85 635.31 666.80 618.61 692.53 C 618.34 692.53 617.80 692.53 617.53 692.53 C 606.28 676.58 595.99 659.99 585.47 643.56 C 571.47 621.77 557.71 599.83 544.29 577.68 C 543.26 575.59 541.20 573.13 542.81 570.80 C 547.93 561.17 554.34 552.30 559.92 542.94 C 580.54 508.61 601.36 474.39 622.27 440.24 C 637.61 414.92 653.59 390.01 668.53 364.46 C 670.11 361.86 671.80 359.29 672.86 356.43 C 661.91 356.18 650.96 355.45 640.00 355.66 C 621.34 356.18 602.66 356.15 584.01 355.71 C 579.69 355.68 575.36 355.61 571.09 354.97 C 573.44 349.88 576.67 345.26 579.46 340.42 C 600.89 304.83 621.90 268.97 643.48 233.49 Z" />
<path fill="#ffffff" opacity="1.00" d=" M 749.89 527.85 C 755.29 519.91 760.12 511.40 767.09 504.69 C 769.41 506.13 769.56 509.74 770.85 512.12 C 788.54 554.80 804.21 598.29 822.20 640.85 C 836.19 676.73 849.98 712.68 864.65 748.29 C 877.29 782.26 891.30 815.71 904.63 849.42 C 912.32 868.72 920.44 887.86 927.51 907.40 C 934.36 925.91 942.74 943.81 949.54 962.34 C 957.50 984.10 966.49 1005.45 975.05 1026.97 C 977.70 1034.48 981.49 1041.69 982.82 1049.60 C 977.27 1050.59 971.46 1049.01 966.08 1051.00 L 775.21 1051.00 C 769.27 1028.82 759.93 1007.77 752.97 985.92 C 748.60 972.08 742.65 958.82 737.79 945.16 C 735.04 936.90 732.80 928.47 729.57 920.38 C 726.69 913.13 723.75 905.89 721.51 898.41 C 719.07 890.17 715.56 882.30 712.99 874.10 C 709.44 862.98 705.03 852.14 700.49 841.40 C 696.71 840.64 692.82 841.05 689.00 840.99 C 660.66 841.01 632.33 840.99 604.00 841.00 C 589.59 840.89 575.13 840.97 560.76 839.83 C 561.36 835.99 563.64 832.77 565.49 829.45 C 583.25 799.62 601.46 770.04 619.22 740.21 C 623.15 733.92 625.58 726.83 629.63 720.61 C 639.60 704.90 649.52 689.15 659.48 673.44 C 690.00 625.15 719.61 576.29 749.89 527.85 Z" />
<path fill="#ffffff" opacity="1.00" d=" M 286.34 510.41 C 287.97 509.91 288.36 511.90 289.17 512.88 C 309.16 545.67 330.26 577.76 350.87 610.16 C 372.36 644.03 393.29 678.26 414.91 712.06 C 436.96 746.69 459.00 781.33 481.02 815.98 C 485.33 822.99 490.08 829.73 494.10 836.91 C 475.41 837.57 456.70 837.77 438.00 837.67 C 424.00 838.30 409.99 837.83 395.98 838.05 C 380.33 838.79 364.65 837.83 349.01 838.73 C 346.96 838.50 346.83 840.96 346.20 842.30 C 338.21 867.64 329.02 892.56 320.70 917.79 C 316.25 928.90 313.02 940.44 308.88 951.66 C 298.13 983.28 287.33 1014.89 276.47 1046.46 C 265.69 1047.50 254.82 1046.79 244.00 1047.00 C 225.66 1046.84 207.34 1047.58 189.00 1047.33 C 171.66 1047.13 154.34 1047.91 137.00 1047.67 C 115.71 1047.52 94.42 1048.36 73.13 1047.92 C 81.97 1024.37 91.51 1001.06 100.59 977.59 C 146.08 861.74 191.69 745.92 237.15 630.06 C 251.89 593.11 265.93 555.89 281.17 519.14 C 282.57 516.07 283.90 512.83 286.34 510.41 Z" />
</g>
</svg>
