<?xml version="1.0" encoding="UTF-8" ?>
<!DOCTYPE svg PUBLIC "-//W3C//DTD SVG 1.1//EN" "http://www.w3.org/Graphics/SVG/1.1/DTD/svg11.dtd">
<svg width="763pt" height="102pt" viewBox="0 0 763 102" version="1.1" xmlns="http://www.w3.org/2000/svg">
<g id="#fbf9f9ff">
<path fill="#fbf9f9" opacity="1.00" d=" M 187.38 0.30 C 201.97 31.78 215.99 63.53 230.19 95.19 C 225.19 95.28 220.20 95.24 215.20 95.19 C 206.01 73.59 196.80 51.98 187.32 30.51 C 177.32 52.00 167.54 73.61 157.78 95.21 C 152.92 95.25 148.06 95.27 143.21 95.18 C 157.75 63.47 172.58 31.89 187.38 0.30 Z" />
<path fill="#fbf9f9" opacity="1.00" d=" M 413.44 0.88 C 415.00 2.03 415.66 3.92 416.47 5.60 C 418.31 9.82 420.20 14.01 422.10 18.20 C 416.61 18.26 411.12 18.28 405.63 18.18 C 408.17 12.39 410.68 6.58 413.44 0.88 Z" />
<path fill="#fbf9f9" opacity="1.00" d=" M 573.42 4.59 C 583.26 3.59 593.56 4.87 602.33 9.67 C 623.18 20.59 631.42 48.92 622.00 70.02 C 615.87 84.55 601.39 94.95 585.80 96.72 C 577.31 97.50 568.52 96.79 560.62 93.40 C 551.42 89.33 543.35 82.42 538.48 73.56 C 530.44 59.16 530.50 40.43 539.43 26.43 C 546.54 14.30 559.54 6.23 573.42 4.59 M 572.41 17.65 C 560.81 19.95 550.74 29.05 547.72 40.55 C 545.12 50.80 546.45 62.42 552.98 70.99 C 561.92 83.45 580.22 88.42 593.83 80.86 C 607.86 74.12 615.18 57.06 612.01 42.09 C 610.16 33.96 605.17 26.39 597.92 22.11 C 590.34 17.57 581.07 16.09 572.41 17.65 Z" />
<path fill="#fbf9f9" opacity="1.00" d=" M 0.00 5.47 C 6.01 5.49 12.02 5.63 18.03 5.83 C 23.38 5.97 29.00 6.45 33.68 9.31 C 42.36 14.62 46.63 25.80 44.51 35.63 C 43.70 39.89 41.13 43.48 38.42 46.75 C 43.12 49.46 47.82 52.79 50.20 57.85 C 53.41 64.53 54.74 72.73 51.57 79.67 C 47.56 87.96 39.22 94.14 29.97 94.98 C 20.02 96.02 9.99 95.37 0.00 95.26 L 0.00 44.25 C 6.36 44.05 12.73 44.15 19.09 43.93 C 23.36 43.70 28.35 42.72 30.60 38.64 C 32.77 34.37 32.63 29.16 31.16 24.69 C 29.79 20.81 25.63 18.90 21.78 18.49 C 14.55 17.68 7.26 18.00 0.00 17.75 L 0.00 5.47 M 13.21 55.19 C 13.17 64.46 13.31 73.73 13.28 83.00 C 20.40 82.98 28.15 83.33 34.46 79.48 C 41.45 75.10 41.82 63.67 35.04 58.94 C 28.64 54.63 20.54 55.52 13.21 55.19 Z" />
<path fill="#fbf9f9" opacity="1.00" d=" M 61.95 5.78 C 67.04 5.66 72.13 5.59 77.22 5.49 C 81.48 12.99 85.73 20.49 89.97 28.00 C 87.39 32.36 84.85 36.75 82.12 41.01 C 75.21 29.38 68.65 17.54 61.95 5.78 Z" />
<path fill="#fbf9f9" opacity="1.00" d=" M 118.19 5.80 C 123.40 5.65 128.61 5.53 133.83 5.61 C 124.61 22.04 115.00 38.25 105.61 54.59 C 104.22 56.79 104.34 59.45 104.31 61.94 C 104.37 73.12 104.27 84.30 104.24 95.48 C 99.76 95.50 95.29 95.50 90.81 95.48 C 90.83 82.63 91.04 69.78 90.96 56.94 C 90.91 54.67 91.13 52.33 92.40 50.37 C 101.00 35.52 109.72 20.73 118.19 5.80 Z" />
<path fill="#fbf9f9" opacity="1.00" d=" M 250.01 6.00 C 254.31 5.94 258.61 5.85 262.92 5.76 C 263.02 31.43 263.03 57.10 263.15 82.77 C 271.94 82.72 280.74 82.77 289.54 82.76 C 289.48 87.00 289.40 91.23 289.34 95.47 C 276.16 95.53 262.99 95.53 249.82 95.47 C 249.87 65.65 250.04 35.83 250.01 6.00 Z" />
<path fill="#fbf9f9" opacity="1.00" d=" M 298.72 5.59 C 303.47 5.54 308.24 5.25 312.99 5.63 C 313.61 6.51 314.13 7.44 314.56 8.43 C 322.52 28.09 330.23 47.87 338.36 67.47 C 346.52 48.09 354.29 28.56 362.20 9.08 C 362.77 8.00 363.05 6.63 364.14 5.91 C 368.83 5.49 373.55 5.82 378.26 5.82 C 369.59 26.88 360.67 47.84 351.90 68.86 C 347.22 79.74 342.93 90.79 338.00 101.57 C 324.65 69.69 311.75 37.61 298.72 5.59 Z" />
<path fill="#fbf9f9" opacity="1.00" d=" M 464.24 5.56 C 474.75 5.79 485.48 4.75 495.78 7.28 C 504.17 9.27 511.69 15.73 513.50 24.37 C 514.96 31.90 514.89 40.59 509.88 46.87 C 506.28 51.99 500.75 55.24 494.96 57.31 C 503.98 69.97 513.25 82.45 522.20 95.16 C 516.85 95.17 511.47 95.53 506.13 95.09 C 504.54 93.92 503.56 92.16 502.42 90.60 C 495.27 80.03 487.76 69.71 480.68 59.10 C 475.24 58.97 469.80 58.82 464.36 58.75 C 464.39 54.76 464.35 50.77 464.27 46.78 C 470.99 46.67 477.71 46.96 484.42 46.57 C 488.94 46.14 493.81 45.44 497.35 42.33 C 500.83 39.32 501.56 34.32 501.23 29.97 C 500.89 24.44 495.94 19.85 490.53 19.32 C 481.83 18.21 473.04 18.49 464.29 18.55 C 464.31 14.22 464.31 9.89 464.24 5.56 Z" />
<path fill="#fbf9f9" opacity="1.00" d=" M 645.30 5.78 C 660.26 5.65 675.22 5.55 690.19 5.53 C 690.13 9.76 690.09 14.00 690.08 18.24 C 675.14 18.30 660.21 18.50 645.27 18.44 C 645.35 14.22 645.34 10.00 645.30 5.78 Z" />
<path fill="#fbf9f9" opacity="1.00" d=" M 708.37 5.78 C 726.58 5.64 744.79 5.58 763.00 5.50 L 763.00 18.25 C 756.20 18.23 749.40 18.28 742.61 18.22 C 742.53 43.89 742.54 69.56 742.60 95.23 C 738.06 95.20 733.53 95.20 729.00 95.28 C 728.96 69.60 729.11 43.91 729.09 18.23 C 722.18 18.31 715.28 18.20 708.37 18.22 C 708.43 14.07 708.43 9.93 708.37 5.78 Z" />
<path fill="#fbf9f9" opacity="1.00" d=" M 395.18 40.04 C 407.43 39.95 419.68 40.02 431.93 40.00 C 440.14 58.49 448.57 76.87 456.66 95.41 C 451.74 95.44 446.83 95.33 441.92 95.26 C 435.66 81.02 429.50 66.74 423.22 52.51 C 416.64 52.67 410.07 52.76 403.51 53.15 C 398.59 64.55 393.16 75.72 388.10 87.05 C 386.78 89.78 385.85 92.78 383.88 95.12 C 379.16 95.49 374.41 95.19 369.68 95.17 C 378.00 76.71 386.81 58.48 395.18 40.04 Z" />
<path fill="#fbf9f9" opacity="1.00" d=" M 645.28 40.03 C 659.89 39.97 674.51 40.02 689.12 40.00 C 689.04 44.16 688.99 48.32 689.01 52.48 C 679.02 52.49 669.04 52.58 659.05 52.44 C 658.97 66.71 658.94 80.98 658.90 95.25 C 654.36 95.23 649.83 95.22 645.30 95.22 C 645.33 76.82 645.36 58.42 645.28 40.03 Z" />
</g>
</svg>
