<?xml version="1.0" encoding="UTF-8" standalone="no"?>
<!DOCTYPE svg PUBLIC "-//W3C//DTD SVG 1.1//EN" "http://www.w3.org/Graphics/SVG/1.1/DTD/svg11.dtd">
<svg xmlns="http://www.w3.org/2000/svg" version="1.1" viewBox="0 0 790 120">
<path fill="rgb(251,249,249)" fill-opacity="1.000" d="M 201.06 39.56 L 171.90 103.73 A 0.82 0.78 -77.0 0 1 171.18 104.21 L 157.74 104.03 A 0.35 0.32 -77.0 0 1 157.46 103.54 L 201.24 9.55 Q 201.45 9.09 201.66 9.55 L 243.98 103.73 A 0.33 0.31 77.5 0 1 243.70 104.20 L 229.94 104.09 A 0.79 0.77 78.8 0 1 229.24 103.61 L 201.44 39.56 Q 201.25 39.14 201.06 39.56 Z"/>
<path fill="rgb(251,249,249)" fill-opacity="1.000" d="M 424.46 16.44 Q 425.99 13.18 427.34 9.73 Q 427.71 8.79 428.14 9.71 L 435.96 26.71 A 0.38 0.38 -12.3 0 1 435.61 27.25 L 420.15 27.25 A 0.41 0.41 -78.1 0 1 419.78 26.68 Q 422.05 21.57 424.46 16.44 Z"/>
<path fill="rgb(251,249,249)" fill-opacity="1.000" d="M 557.82 29.34 Q 558.85 28.12 560.00 27.00 Q 575.58 11.95 597.50 13.49 Q 621.72 15.20 633.44 35.56 Q 637.76 43.08 639.21 53.01 Q 641.42 68.11 635.09 80.82 Q 630.58 89.89 622.60 96.22 Q 610.58 105.77 594.00 105.96 Q 575.07 106.19 561.69 94.06 Q 552.26 85.51 548.66 73.56 Q 545.74 63.82 546.97 53.77 Q 548.62 40.27 557.82 29.34 Z M 561.65 50.43 Q 559.00 60.09 561.97 69.69 Q 564.75 78.68 571.33 84.84 Q 578.38 91.43 588.06 92.94 Q 600.60 94.89 610.44 88.44 Q 623.14 80.10 625.96 65.65 Q 627.47 57.94 625.89 50.87 Q 624.17 43.14 619.03 37.28 Q 613.70 31.20 605.61 28.20 Q 597.55 25.20 589.00 26.25 Q 578.46 27.54 571.15 34.37 Q 564.29 40.77 561.65 50.43 Z"/>
<path fill="rgb(251,249,249)" fill-opacity="1.000" d="M 118.25 68.37 Q 118.29 86.15 118.19 103.93 A 0.52 0.52 -0.6 0 1 117.68 104.45 L 105.53 104.49 A 0.80 0.79 -90.0 0 1 104.73 103.68 Q 105.02 83.26 105.06 63.90 Q 105.06 61.81 106.10 60.00 Q 118.94 37.65 132.00 15.43 A 0.92 0.88 -74.9 0 1 132.76 14.97 L 147.28 14.44 Q 148.15 14.41 147.70 15.17 Q 133.27 39.68 119.28 64.42 Q 118.25 66.25 118.25 68.37 Z"/>
<path fill="rgb(251,249,249)" fill-opacity="1.000" d="M 43.45 49.18 Q 44.45 48.28 44.95 47.03 Q 46.79 42.43 46.02 37.36 Q 45.39 33.21 43.18 30.78 Q 40.54 27.88 36.25 27.50 Q 30.76 27.01 14.82 26.70 A 0.57 0.53 0.0 0 1 14.26 26.18 L 14.06 15.56 A 1.12 1.05 0.0 0 1 15.20 14.49 Q 22.61 14.59 29.56 14.78 Q 39.21 15.04 43.72 16.65 Q 57.52 21.57 59.00 38.00 Q 59.90 47.95 52.43 55.34 A 0.36 0.35 -53.6 0 0 52.51 55.91 Q 67.06 63.32 67.25 80.25 Q 67.33 87.00 63.56 92.27 Q 57.90 100.17 49.75 102.75 Q 44.07 104.55 35.50 104.58 Q 25.62 104.61 15.00 104.22 A 1.04 1.03 -89.1 0 1 14.00 103.18 L 14.00 54.46 A 1.14 1.14 -1.3 0 1 15.09 53.32 Q 25.25 52.88 33.75 52.86 Q 39.36 52.84 43.45 49.18 Z M 51.56 85.31 Q 56.70 77.21 51.35 70.39 Q 49.48 68.00 46.41 66.53 Q 43.16 64.97 40.25 64.75 Q 34.26 64.29 28.03 64.25 A 0.77 0.77 0.4 0 0 27.25 65.02 L 27.25 90.97 A 0.99 0.98 1.2 0 0 28.20 91.95 Q 36.74 92.32 43.98 90.44 Q 49.16 89.10 51.56 85.31 Z"/>
<path fill="rgb(251,249,249)" fill-opacity="1.000" d="M 98.61 46.09 Q 97.66 47.66 96.45 49.77 Q 96.16 50.29 95.86 49.77 L 76.28 15.55 A 0.53 0.53 74.4 0 1 76.73 14.75 L 90.65 14.49 A 0.87 0.86 -14.9 0 1 91.42 14.93 L 103.51 36.21 A 1.65 1.62 -45.1 0 1 103.50 37.82 Q 100.86 42.34 98.61 46.09 Z"/>
<path fill="rgb(251,249,249)" fill-opacity="1.000" d="M 352.96 75.52 L 377.37 15.35 A 0.98 0.98 -78.8 0 1 378.27 14.75 L 391.50 14.75 A 0.61 0.61 -78.5 0 1 392.06 15.60 L 352.48 110.01 Q 352.04 111.07 351.60 110.00 L 312.94 15.21 A 0.36 0.34 78.5 0 1 313.25 14.72 L 326.49 14.53 A 1.32 1.25 77.9 0 1 327.68 15.35 L 351.86 75.52 Q 352.40 76.88 352.96 75.52 Z"/>
<path fill="rgb(251,249,249)" fill-opacity="1.000" d="M 509.26 65.99 A 0.41 0.40 62.2 0 0 509.07 66.61 L 535.90 103.78 Q 536.20 104.19 535.68 104.19 L 520.38 104.25 A 1.31 1.29 72.5 0 1 519.31 103.68 L 494.91 68.65 A 1.59 1.52 -16.5 0 0 493.65 68.00 L 479.06 67.71 A 0.54 0.53 0.0 0 1 478.53 67.19 L 478.26 56.77 A 1.11 1.09 0.8 0 1 479.43 55.66 Q 490.26 56.25 500.02 55.20 Q 506.60 54.48 509.96 52.15 Q 516.08 47.90 515.26 39.71 Q 514.82 35.41 512.54 32.68 Q 510.79 30.59 508.26 29.40 Q 506.42 28.54 503.10 28.24 Q 491.59 27.18 479.07 27.53 A 0.80 0.79 89.0 0 1 478.25 26.73 L 478.25 15.16 A 0.66 0.66 -0.4 0 1 478.90 14.50 Q 488.13 14.43 497.25 14.75 Q 504.95 15.02 509.85 16.29 Q 519.25 18.73 524.09 25.88 Q 528.34 32.19 528.29 41.36 Q 528.18 59.41 509.26 65.99 Z"/>
<rect fill="rgb(251,249,249)" fill-opacity="1.000" x="-22.45" y="-6.39" width="44.90" height="12.78" rx="0.65" transform="translate(681.70,21.00) rotate(-0.5)"/>
<path fill="rgb(251,249,249)" fill-opacity="1.000" d="M 756.56 28.06 L 756.50 103.69 A 0.56 0.55 -90.0 0 1 755.95 104.25 L 743.56 104.20 A 0.51 0.51 0.6 0 1 743.06 103.69 L 743.06 27.79 A 0.54 0.54 89.9 0 0 742.52 27.25 L 723.03 27.25 A 0.52 0.52 -90.0 0 1 722.51 26.73 L 722.55 15.31 A 0.51 0.50 -0.0 0 1 723.06 14.81 L 776.31 14.68 A 0.53 0.52 0.0 0 1 776.84 15.20 L 776.97 26.47 A 0.85 0.80 -0.7 0 1 776.13 27.28 L 757.07 27.53 A 0.53 0.52 89.4 0 0 756.56 28.06 Z"/>
<path fill="rgb(251,249,249)" fill-opacity="1.000" d="M 277.81 91.69 L 302.93 91.75 A 0.56 0.52 1.0 0 1 303.49 92.29 L 303.22 103.98 A 0.56 0.54 1.1 0 1 302.66 104.50 L 264.53 104.50 A 0.78 0.78 89.9 0 1 263.75 103.72 L 264.00 15.73 A 0.74 0.73 89.2 0 1 264.71 14.99 L 276.07 14.81 A 0.95 0.93 89.7 0 1 277.01 15.76 L 277.31 91.18 A 0.51 0.50 90.0 0 0 277.81 91.69 Z"/>
<path fill="rgb(251,249,249)" fill-opacity="1.000" d="M 436.69 61.57 L 418.28 62.03 A 0.90 0.87 -77.3 0 0 417.50 62.54 L 398.53 103.69 A 0.97 0.97 12.4 0 1 397.65 104.25 L 384.23 104.25 A 0.43 0.43 -77.6 0 1 383.84 103.64 L 409.10 49.51 A 0.79 0.78 12.4 0 1 409.81 49.06 L 445.44 49.06 A 0.78 0.77 77.3 0 1 446.14 49.51 L 470.38 103.49 A 0.71 0.71 -11.6 0 1 469.72 104.49 L 456.48 104.26 A 0.85 0.84 78.5 0 1 455.72 103.75 L 437.39 62.02 A 0.76 0.72 76.2 0 0 436.69 61.57 Z"/>
<path fill="rgb(251,249,249)" fill-opacity="1.000" d="M 659.44 49.42 A 0.36 0.36 -90.0 0 1 659.80 49.06 L 702.52 49.00 A 0.68 0.65 -89.6 0 1 703.17 49.69 L 703.00 60.72 A 0.79 0.76 -89.6 0 1 702.24 61.50 L 673.85 61.50 A 0.85 0.85 0.2 0 0 673.00 62.35 L 673.00 103.26 A 0.99 0.99 -0.5 0 1 672.01 104.25 L 660.14 104.25 A 0.89 0.88 -0.0 0 1 659.25 103.37 L 659.44 49.42 Z"/>
</svg>